<?xml version="1.0" encoding="utf-8"?>
<!-- Generator: Adobe Illustrator 23.0.1, SVG Export Plug-In . SVG Version: 6.00 Build 0)  -->
<svg version="1.1" id="Ebene_1" xmlns="http://www.w3.org/2000/svg" xmlns:xlink="http://www.w3.org/1999/xlink" x="0px" y="0px"
	 viewBox="0 0 245.2 60" style="enable-background:new 0 0 245.2 60;" xml:space="preserve">
<style type="text/css">
	.st0{fill:#E10025;}
	.st1{fill:#777777;}
	.st2{fill:#686e7f;}
</style>
<g>
	<g>
		<path class="st2" d="M17.7,51.5V25.2h-2.5V37c-1.5-2.2-3.3-3.2-5.6-3.2c-4.4,0-7.5,3.9-7.5,9.5c0,5.2,2.8,8.6,6.9,8.6c2.2,0,4.4-1.1,6.3-3v2.6
			H17.7L17.7,51.5z M15.2,45.9c-1.5,2.2-3.6,3.5-5.7,3.5c-2.9,0-4.8-2.5-4.8-6.6c0-3.9,2-6.7,4.8-6.7c2.1,0,4,1.4,5.6,4.3L15.2,45.9
			L15.2,45.9z"/>
		<path class="st2" d="M36.7,48.7l-1.2-1.6c-1.4,1-1.8,1.2-2.6,1.6c-1.1,0.6-2.3,0.8-3.4,0.8c-3.1,0-4.9-2.4-4.9-6.3v-0.6h11.8v-0.8
			c0-5.1-2.4-8.1-6.6-8.1c-4.7,0-8.1,3.9-8.1,9.4c0,5.3,2.9,8.7,7.4,8.7c1.9,0,3.6-0.6,5.6-1.8C35.7,49.5,36,49.3,36.7,48.7
			L36.7,48.7z M33.7,40.6l-9,0.2c0.5-2.9,2.4-4.8,4.8-4.8C32.1,36,33.7,37.7,33.7,40.6L33.7,40.6z"/>
		<path class="st2" d="M54.2,45.9c0-1.3-0.5-2.6-1.5-3.4c-0.7-0.6-1.6-1.1-2.5-1.5c-0.3-0.1-1.2-0.4-2.8-1c-0.7-0.2-1.1-0.6-1.1-1
			c0-0.7,1-1.1,3-1.1c1,0,2.1,0.1,3.4,0.4l0.8-3.7c-1.7-0.4-3.4-0.6-5-0.6c-4.8,0-8.1,2.2-8.1,5.6c0,1.3,0.6,2.6,1.6,3.4
			c1.1,1,2,1.4,5,2.4c0.7,0.2,1.1,0.5,1.1,1c0,0.9-1.2,1.3-3.6,1.3c-1.1,0-2.2-0.1-3.8-0.3l-0.9,4c1.8,0.4,3.7,0.6,5.5,0.6
			C50.8,51.9,54.2,49.6,54.2,45.9L54.2,45.9z"/>
		<path class="st2" d="M64.6,29.6c0-1.7-1.4-3.1-3.1-3.1s-3.1,1.4-3.1,3.1s1.4,3.1,3.1,3.1S64.6,31.3,64.6,29.6L64.6,29.6z M64.3,51.5V34.4h-5.7
			v17.1H64.3L64.3,51.5z"/>
		<path class="st2" d="M88.2,53.5c0-2.3-1.7-3.7-5-4.1l-3.5-0.5c-2.3-0.3-3-0.4-4.7-0.9c0.3-0.3,0.4-0.5,0.5-0.7l0.2-0.4l0.1-0.2
			c0.9,0.1,1.2,0.1,1.6,0.1c4.2,0,7.4-2.6,7.4-6.1c0-1.2-0.1-1.7-0.8-2.6h3v-3.8h-6c-1.3-0.4-1.8-0.5-3.3-0.5
			c-4.8,0-8.2,2.8-8.2,6.8c0,2.1,0.9,3.7,2.8,5L72,46c-0.7,1-0.9,1.2-2,2.6c-0.5,0.6-0.6,0.9-0.6,1.1c0,0.4,0.2,0.6,0.9,0.9
			c0.6,0.2,0.8,0.3,1.5,0.4c-2.5,0.4-3.9,1.8-3.9,3.8c0,3.1,3.8,5.2,9.6,5.2C84,60.1,88.2,57.4,88.2,53.5L88.2,53.5z M79.8,40.4
			c0,1.7-0.9,2.8-2.3,2.8c-1.5,0-2.4-1.3-2.4-3.3c0-1.7,0.9-2.8,2.3-2.8C78.8,37.2,79.8,38.5,79.8,40.4L79.8,40.4z M82.5,54.4
			c0,1.2-1.7,2.1-4.4,2.1c-2.8,0-4.7-0.9-4.7-2.2c0-0.9,0.7-1.6,2.1-2c1.1,0.2,1.5,0.3,2.8,0.5c2.3,0.3,2.7,0.4,3.2,0.5
			C82.2,53.5,82.5,53.9,82.5,54.4L82.5,54.4z"/>
		<path class="st2" d="M107.7,51.5V40.9c0-3.2-0.3-4.6-1.2-5.6c-0.8-0.9-2.1-1.4-3.5-1.4c-2.2,0-4.6,1.2-6.4,3.2v-2.6H91v17.1h5.7V41.3
			c1.1-1.3,2.7-2.2,3.7-2.2c0.9,0,1.5,0.6,1.5,1.6c0,0.4,0.1,1.4,0.1,2v8.9L107.7,51.5L107.7,51.5z"/>
		<path class="st0" d="M125.5,36c-0.6,2.6-1.9,6-3.7,8.8c-1.9,3-4.1,5.3-5.7,5.3c-1.1,0-1.5-1.1-1.5-2.4c0-3.8,3.4-12.4,8.9-12.4
			C124.2,35.3,125,35.5,125.5,36L125.5,36z M126,34.3l-0.2,0.5c-0.6-0.4-1.6-0.7-2.5-0.7c-8.3,0-12.2,9.1-12.2,13.7
			c0,2.1,1,4.1,3.3,4.1c3.7,0,7-4.3,9-7.9h0.1l-1.2,4c-0.7,2.5-0.3,3.9,1.5,3.9c2.6,0,4.6-2.4,5.8-5l-0.8-0.5
			c-0.6,1.2-2.2,3.7-3.1,3.7c-0.7,0-0.7-0.8-0.3-1.9l3.7-13.9L126,34.3L126,34.3z"/>
		<path class="st0" d="M147.4,34.5c-1,3.5-1.6,5.4-2.5,7.5c-1.5,3.5-4.6,8.1-7.4,8.1c-1.1,0-1.4-1-0.9-3.1l3.3-12.8l-0.2-0.2l-6.3,1
			l-0.2,0.8l2.2,0.2c0.8,0.1,0.8,0.6,0.5,1.7l-2.4,9.2c-0.7,2.8-0.5,5,2.3,5c3.3,0,7-3.7,9.1-7.7h0.1l-1.1,4
			c-0.7,2.3-0.2,3.8,1.6,3.8c2.5,0,4.6-2.4,5.8-5l-0.8-0.5c-0.7,1.2-2.2,3.7-3.2,3.7c-0.7,0-0.7-0.8-0.5-1.9l3.7-14.2L147.4,34.5
			L147.4,34.5z"/>
		<path class="st0" d="M161.7,34c-3.5,0-5.6,2.3-5.6,5.1c0,1.8,1.3,3.4,3.1,4.9c1.5,1.2,2.4,2.7,2.4,4.1c0,1.6-1,2.6-2.5,2.6
			c-1.3,0-2.6-1.1-3.1-2.9c-0.2-0.7-0.5-1-1.1-1c-1,0-1.8,0.9-1.8,1.9c0,1.5,1.9,3.3,5.2,3.3c3.8,0,6-2.4,6-5.3
			c0-1.9-0.9-3.4-3.2-5.3c-2.1-1.7-2.5-2.9-2.5-3.8c0-1.1,0.9-2.3,2.2-2.3c1.1,0,2.1,0.8,2.8,2.4c0.2,0.4,0.5,0.7,1,0.7
			c0.7,0,1.7-0.5,1.7-1.6S164.8,34,161.7,34L161.7,34z"/>
		<path class="st0" d="M179.3,35.8l0.4-1.3h-4.4l1.2-4.1l-0.5-0.3l-3.4,2.7l-0.5,1.7h-2.8l-0.4,1.3h2.9l-3.1,12.7
			c-0.5,2-0.1,3.4,1.6,3.4c2.8,0,5-2.3,6.4-4.9l-0.8-0.6c-0.8,1.4-2.6,3.7-3.7,3.7c-0.7,0-0.7-0.8-0.5-1.7l3.1-12.7L179.3,35.8
			L179.3,35.8z"/>
		<path class="st0" d="M183.4,51.5c0.6-2.3,1.3-5.1,1.8-7.1c1.3-4.6,3-7.5,4.3-7.5c1.1,0,1.3,0.9,2.4,0.9c0.9,0,1.6-1.1,1.6-2.2
			c0-0.9-0.5-1.5-1.6-1.5c-1.9,0-4.3,2.2-6.2,5.9h-0.1l1.6-5.8L187,34l-6,1l-0.2,0.8L183,36c0.8,0.1,0.8,0.6,0.5,1.7l-3.2,14.2
			L183.4,51.5L183.4,51.5z"/>
		<path class="st0" d="M194.2,35l-0.2,0.8l2,0.2c0.9,0.1,1,0.4,0.7,1.6l-2.9,10.9c-0.5,2-0.1,3.4,1.8,3.4c2.5,0,4.5-2.4,5.6-5
			l-0.8-0.5c-0.6,1.2-2.2,3.7-3.1,3.7c-0.7,0-0.7-0.8-0.3-1.9l3.8-14l-0.2-0.2L194.2,35L194.2,35z M200.4,26.6
			c-1.5,0-2.3,1.2-2.3,2.3c0,1.3,0.9,1.9,1.9,1.9c1.4,0,2.2-0.9,2.2-2.3C202.3,27.2,201.4,26.6,200.4,26.6L200.4,26.6z"/>
		<path class="st0" d="M217.9,36c-0.6,2.6-1.9,6-3.7,8.8c-1.9,3-4.1,5.3-5.7,5.3c-1.1,0-1.5-1.1-1.5-2.4c0-3.8,3.4-12.4,8.9-12.4
			C216.6,35.3,217.4,35.5,217.9,36L217.9,36z M218.5,34.3l-0.2,0.5c-0.6-0.4-1.6-0.7-2.5-0.7c-8.3,0-12.2,9.1-12.2,13.7
			c0,2.1,1,4.1,3.3,4.1c3.7,0,7-4.3,9-7.9h0.1l-1.2,4c-0.7,2.5-0.3,3.9,1.5,3.9c2.6,0,4.6-2.4,5.8-5l-0.8-0.5
			c-0.6,1.2-2.2,3.7-3.1,3.7c-0.7,0-0.7-0.8-0.3-1.9l3.7-13.9L218.5,34.3L218.5,34.3z"/>
	</g>
	<g>
		<path class="st1" d="M27.3,14.7v6h-1.1v-5.9c0-1.5-0.7-2.2-1.9-2.2c-0.6,0-1,0.1-2.2,0.7c0.2,0.3,0.2,1.1,0.2,1.6v5.8h-1.1v-6.3
			c0-1.3-0.8-1.8-2-1.8c-0.8,0-1.6,0.2-2.1,0.5v7.6H16v-8.8h0.9v0.4c0.8-0.4,1.6-0.6,2.4-0.6c1,0,1.9,0.3,2.4,0.9
			c0.9-0.5,1.7-0.9,2.7-0.9C26,11.7,27.3,12.7,27.3,14.7z"/>
		<path class="st1" d="M32.7,11.7c2.1,0,3.2,1.2,3.2,3.2v1.8h-5.6v1.4c0,1.3,0.8,1.9,2.1,1.9c0.9,0,1.8-0.2,2.4-0.7l0.6,0.6
			c-0.8,0.6-1.8,1-3.1,1c-2,0-3.1-1.1-3.1-2.9v-3.1C29.3,12.8,30.6,11.7,32.7,11.7L32.7,11.7z M30.4,14.8v1h4.5v-1.1
			c0-1.7-1.1-2.2-2.2-2.2C31.6,12.6,30.4,13.1,30.4,14.8z"/>
		<path class="st1" d="M49.3,14.7v6h-1.1v-5.9c0-1.5-0.7-2.2-1.9-2.2c-0.6,0-1,0.1-2.2,0.7c0.2,0.3,0.2,1.1,0.2,1.6v5.8h-1.1v-6.3
			c0-1.3-0.8-1.8-2-1.8c-0.8,0-1.6,0.2-2.1,0.5v7.6H38v-8.8h0.9v0.4c0.8-0.4,1.6-0.6,2.4-0.6c1,0,1.9,0.3,2.4,0.9
			c0.9-0.5,1.7-0.9,2.7-0.9C48.1,11.7,49.3,12.7,49.3,14.7z"/>
		<path class="st1" d="M52.8,12.2c0.7-0.3,1.6-0.5,2.4-0.5c1.7,0,3.3,0.7,3.3,3v3.1c0,2.2-1.7,3-3.4,3c-0.9,0-1.8-0.2-2.5-0.6v0.5
			h-0.9V8.3h1.1C52.8,8.3,52.8,12.2,52.8,12.2z M52.8,13v6.4c0.6,0.3,1.4,0.5,2.2,0.5c1.4,0,2.4-0.6,2.4-2.1v-3.1
			c0-1.6-1-2.2-2.4-2.2C54.2,12.6,53.3,12.8,52.8,13z"/>
		<path class="st1" d="M63.7,11.7c2.1,0,3.2,1.2,3.2,3.2v1.8h-5.6v1.4c0,1.3,0.8,1.9,2.1,1.9c0.9,0,1.8-0.2,2.4-0.7l0.6,0.6
			c-0.8,0.6-1.8,1-3.1,1c-2,0-3.1-1.1-3.1-2.9v-3.1C60.3,12.8,61.6,11.7,63.7,11.7L63.7,11.7z M61.4,14.8v1h4.5v-1.1
			c0-1.7-1.1-2.2-2.2-2.2C62.6,12.6,61.4,13.1,61.4,14.8z"/>
		<path class="st1" d="M73.7,11.8l-0.1,0.9c-0.4-0.1-0.8-0.2-1.2-0.1c-1.5,0-2.3,0.9-2.3,2.6v5.5H69v-8.9h0.9v1.3
			c0.5-1,1.4-1.4,2.7-1.4C73,11.6,73.4,11.7,73.7,11.8z"/>
		<path class="st1" d="M87.1,15.1v2.2c0,1.7-0.9,3.5-3.4,3.5s-3.5-1.7-3.5-3.5v-2.2c0-2.2,1.2-3.5,3.5-3.5
			C85.9,11.6,87.1,13,87.1,15.1z M83.7,12.6c-1.6,0-2.4,0.9-2.4,2.6v2.2c0,1.3,0.7,2.5,2.4,2.5s2.3-1.2,2.3-2.5v-2.3
			C86,13.5,85.2,12.6,83.7,12.6L83.7,12.6z"/>
		<path class="st1" d="M92.9,8.2v0.9c-0.3,0-0.6-0.1-0.7-0.1c-0.9,0-1.7,0.6-1.7,2.1v0.6h2.3v0.9h-2.3v7.9h-1.1v-9.4
			c0-2.2,1.4-2.9,2.8-2.9C92.4,8.1,92.6,8.2,92.9,8.2z"/>
	</g>
</g>
</svg>
